<svg version="1.0" xmlns="http://www.w3.org/2000/svg"
 width="1857.000000pt" height="1849.000000pt" viewBox="0 0 1857.000000 1849.000000"
 preserveAspectRatio="xMidYMid meet">
<metadata>
Created by potrace 1.16, written by Peter Selinger 2001-2019
</metadata>
<g transform="translate(0.000000,1849.000000) scale(0.100000,-0.100000)"
fill="#2563EB" stroke="none">
<path d="M4825 18459 c-601 -23 -1118 -105 -1610 -256 -163 -50 -341 -112
-420 -148 -27 -12 -61 -26 -75 -30 -67 -20 -438 -208 -565 -286 -71 -43 -315
-209 -375 -254 -249 -188 -551 -490 -757 -757 -167 -215 -345 -520 -468 -803
-275 -632 -465 -1448 -514 -2210 -10 -143 -6 -8268 4 -8810 12 -691 96 -1279
257 -1790 88 -282 232 -606 373 -840 253 -419 440 -664 707 -920 437 -422 877
-709 1438 -940 342 -141 837 -262 1425 -349 55 -9 170 -19 255 -24 85 -4 2290
-8 4900 -7 4463 0 4754 1 4900 18 176 20 303 38 505 73 212 36 476 102 685
171 104 33 425 159 469 183 9 5 72 37 141 71 177 87 262 137 455 266 198 133
249 171 405 307 380 331 695 731 949 1204 34 62 61 115 61 117 0 3 16 37 36
77 198 405 378 1032 453 1578 89 642 82 219 82 5215 0 4368 -1 4509 -31 4735
-151 1110 -337 1708 -735 2364 -81 133 -240 344 -370 491 -175 199 -435 444
-625 591 -402 310 -850 543 -1345 699 -174 55 -424 117 -575 144 -63 12 -149
28 -190 36 -162 31 -575 71 -880 85 -242 11 -8681 10 -8965 -1z"/>
</g>
</svg>
